<?xml version="1.0" encoding="iso-8859-1"?>
<!-- Uploaded to: SVG Repo, www.svgrepo.com, Generator: SVG Repo Mixer Tools -->
<!DOCTYPE svg PUBLIC "-//W3C//DTD SVG 1.1//EN" "http://www.w3.org/Graphics/SVG/1.1/DTD/svg11.dtd">
<svg fill="#000000" version="1.1" id="Capa_1" xmlns="http://www.w3.org/2000/svg" xmlns:xlink="http://www.w3.org/1999/xlink" 
	 width="800px" height="800px" viewBox="0 0 30.544 30.544"
	 xml:space="preserve">
<g>
	<g>
		<path d="M13.681,29.037c-1.058-0.229-1.634-0.354-1.634-0.354h-0.281l0.769-4.067l-0.769-3.183v-0.686V19.82h0.262l0.002-1.685
			l1.463-0.024l-0.181-7.096l-2.984-0.646c0,0-0.557,1.711-2.091,1.802c-1.533,0.088-2.114-1.802-2.114-1.802l-2.669,0.645
			l-0.228,7.289h1.398l0.074,1.518h0.213v0.928v0.686v7.25h-0.28c0,0-0.571,0.104-1.634,0.354c-1.062,0.25,0,1.507,0,1.507h4.83
			v-1.678v-0.183v-7.25h1.026l0.781,3.118l-0.781,4.132v0.183v1.678h4.827C13.681,30.543,14.739,29.266,13.681,29.037z"/>
		<path d="M4.425,4.503c-0.05,0.166-0.102,0.334-0.131,0.509C4.257,5.23,4.238,5.455,4.238,5.684c0,2.25,1.823,4.073,4.073,4.073
			c2.248,0,4.072-1.822,4.072-4.073c0-0.45-0.091-0.875-0.225-1.28l0.827-1.141l-1.48-0.522l0.29-1.515l-1.81,0.518L9.152,0
			L7.606,1.611L6.409,0.223L5.846,2.056l-1.922-0.63l0.725,1.619L3.25,3.438L4.425,4.503z"/>
		<path d="M25.713,23.16c-0.147-1.456-1.62-2.602-3.412-2.602s-3.264,1.146-3.412,2.602h-2.896v1.929l0.361,0.181l2.075,1.088
			v-0.525h1.415V27.1l1.539,0.808h1.505l1.914-1.039v-1.036h1.415V26.1l1.529-0.83l0,0h0.002l0.27-0.18v-1.93H25.713z M19.706,23.16
			c0.155-1.008,1.259-1.791,2.596-1.791c1.336,0,2.441,0.783,2.596,1.791H19.706z"/>
		<polygon points="26.217,27.82 24.802,27.82 24.802,27.098 22.985,28.084 22.941,28.109 22.889,28.109 21.383,28.109 
			21.333,28.109 21.29,28.086 19.845,27.329 19.845,27.82 18.43,27.82 18.43,26.587 16.355,25.498 16.355,30.543 27.747,30.543 
			27.747,25.5 26.217,26.33 		"/>
	</g>
</g>
</svg>